<svg width="45" height="45" viewBox="0 0 45 45" fill="none" xmlns="http://www.w3.org/2000/svg">
<path fill-rule="evenodd" clip-rule="evenodd" d="M33.75 11.25V33.75H11.25V11.25H33.75ZM20.7202 16.875H18.5289L14.3687 28.125H16.3456L17.131 25.9257H22.1111L22.8797 28.125H24.9756L20.7202 16.875ZM28.4848 16.875H26.5159V28.125H28.4848V16.875ZM19.6079 18.7625L21.5692 24.375H17.6779L19.6079 18.7625ZM35.625 28.125H39.375V31.875H35.625V28.125ZM13.125 35.625H16.875V39.375H13.125V35.625ZM20.625 35.625H24.375V39.375H20.625V35.625ZM13.125 5.625H16.875V9.375H13.125V5.625ZM28.125 35.625H31.875V39.375H28.125V35.625ZM20.625 5.625H24.375V9.375H20.625V5.625ZM28.125 5.625H31.875V9.375H28.125V5.625ZM35.625 20.625H39.375V24.375H35.625V20.625ZM5.625 28.125H9.375V31.875H5.625V28.125ZM35.625 13.125H39.375V16.875H35.625V13.125ZM5.625 20.625H9.375V24.375H5.625V20.625ZM5.625 13.125H9.375V16.875H5.625V13.125Z" fill="black"/>
</svg>
