<svg width="55" height="50" viewBox="0 0 55 50" fill="none" xmlns="http://www.w3.org/2000/svg">
<g clip-path="url(#clip0_206_2881)">
<path d="M49.1752 26.4181L45.5733 19.7558C44.912 8.6956 38.0064 0 27.017 0C8.67054 0 5.14453 8.98154 5.14453 18.1664C5.14453 22.7026 7.2549 26.8948 10.6717 29.9488L6.11989 48.0245C5.9993 48.5035 6.12363 49.0067 6.45753 49.3913C6.79144 49.7759 7.29865 50 7.83485 50H14.1031L19.3408 29.9817C19.7369 28.351 19.2347 26.6451 17.9948 25.4207C15.9469 23.3982 14.2985 19.4874 14.2985 16.6512C14.2985 10.8738 20.0286 7.53008 26.9078 6.54067C34.2706 5.48171 39.2237 7.20696 39.2237 12.3919C39.2237 13.983 36.7259 14.7117 33.9272 15.0151C32.7188 15.1462 31.6891 15.8827 31.2587 16.9257C30.7594 18.1354 29.6 19.54 26.908 19.54C26.1522 19.54 24.4032 20.0116 24.1751 20.9866C23.6142 23.3852 24.999 25.6095 24.6941 26.8973C23.5402 31.7724 20.4389 43.6252 18.9747 50H23.0425C23.9722 50 24.7788 49.412 24.988 48.5818L26.1002 44.165H35.0932C39.1893 44.165 42.7076 41.2338 43.4502 37.1917C43.8793 34.8516 44.3437 32.1969 44.7327 29.6815H47.3759C48.1482 29.6815 48.8598 29.2606 49.2339 28.5823C49.6078 27.9039 49.5854 27.0752 49.1752 26.4181ZM14.8822 7.93663C14.7096 8.05125 11.021 10.5627 11.1926 15.1534C11.2191 15.8626 10.613 16.4571 9.83921 16.4816C9.82276 16.4821 9.8065 16.4823 9.79023 16.4823C9.0381 16.4823 8.41572 15.9358 8.38973 15.2414C8.1652 9.22774 13.0465 5.97941 13.2544 5.84407C13.8863 5.43289 14.7612 5.56909 15.2096 6.14748C15.6569 6.72485 15.5104 7.52494 14.8822 7.93663ZM17.6411 6.42075C16.8667 6.42075 16.2389 5.84544 16.2389 5.13581C16.2389 4.42618 16.8667 3.85087 17.6411 3.85087C18.4155 3.85087 19.0433 4.42618 19.0433 5.13581C19.0433 5.84544 18.4155 6.42075 17.6411 6.42075Z" fill="white" stroke="white" stroke-width="0.6853"/>
</g>
<defs>
<clipPath id="clip0_206_2881">
<rect width="55" height="50" fill="white"/>
</clipPath>
</defs>
</svg>
