<svg width="45" height="45" viewBox="0 0 45 45" fill="none" xmlns="http://www.w3.org/2000/svg">
<g clip-path="url(#clip0_206_2856)">
<path d="M0 22.5V19.71C0 16.59 1.095 13.935 3.285 11.745C5.475 9.555 8.13 8.46 11.25 8.46C12.21 8.46 13.23 8.625 14.31 8.955C14.85 6.375 16.155 4.245 18.225 2.565C20.295 0.885 22.665 0.03 25.335 0C28.425 0 31.065 1.11 33.255 3.33C35.445 5.55 36.555 8.19 36.585 11.25C36.585 12.09 36.435 13.05 36.135 14.13C36.345 14.1 36.495 14.085 36.585 14.085C38.895 14.085 40.875 14.91 42.525 16.56C44.175 18.21 45 20.19 45 22.5V25.335C45 27.675 44.175 29.655 42.525 31.275C40.875 32.895 38.895 33.72 36.585 33.75H36.045C36.315 33 36.48 32.325 36.54 31.725C36.63 30.495 36.48 29.295 36.09 28.125C35.7 26.955 35.04 25.92 34.11 25.02L28.485 19.395C26.835 17.715 24.84 16.875 22.5 16.875C20.16 16.875 18.18 17.7 16.56 19.35L10.935 24.975C10.035 25.875 9.375 26.925 8.955 28.125C8.535 29.325 8.385 30.54 8.505 31.77C8.535 32.31 8.655 32.895 8.865 33.525C6.315 32.955 4.2 31.65 2.52 29.61C0.84 27.57 0 25.2 0 22.5ZM14.085 31.23C13.995 30.33 14.265 29.58 14.895 28.98L20.52 23.355C21.09 22.785 21.75 22.5 22.5 22.5C23.28 22.5 23.94 22.785 24.48 23.355L30.105 28.98C30.735 29.58 31.02 30.33 30.96 31.23C30.93 31.5 30.855 31.77 30.735 32.04C30.525 32.55 30.18 32.97 29.7 33.3C29.22 33.63 28.695 33.78 28.125 33.75H25.335V42.21C25.335 42.99 25.05 43.65 24.48 44.19C23.91 44.73 23.25 45 22.5 45C21.75 45 21.09 44.73 20.52 44.19C19.95 43.65 19.68 42.99 19.71 42.21V33.75H16.875C16.305 33.75 15.795 33.6 15.345 33.3C14.895 33 14.535 32.58 14.265 32.04C14.175 31.77 14.115 31.5 14.085 31.23Z" fill="black"/>
</g>
<defs>
<clipPath id="clip0_206_2856">
<rect width="45" height="45" fill="white"/>
</clipPath>
</defs>
</svg>
