<svg width="45" height="45" viewBox="0 0 45 45" fill="none" xmlns="http://www.w3.org/2000/svg">
<path d="M26.8476 4.69683C24.4714 4.41967 22.2167 5.81311 21.402 8.06229C21.2184 8.56918 21.1539 9.1172 21.1237 9.69164C21.1011 10.125 21.0954 10.6416 21.0943 11.25L21.0937 12.1031C21.0937 12.1121 21.0937 12.1211 21.0937 12.1301V27.2548C19.5006 25.7595 17.3573 24.8437 15 24.8437C10.0812 24.8437 6.09375 28.8311 6.09375 33.75C6.09375 38.6689 10.0812 42.6562 15 42.6562C19.9189 42.6562 23.9062 38.6689 23.9062 33.75V17.2699C24.1027 17.3746 24.3156 17.4809 24.5488 17.5974L29.6254 20.1356C30.4097 20.5277 31.0479 20.8468 31.5709 21.0748C32.0981 21.3047 32.6171 21.4922 33.1526 21.5546C35.5286 21.8317 37.7833 20.4382 38.598 18.1892C38.7817 17.6823 38.8461 17.1342 38.8764 16.5598C38.9062 15.9901 38.9062 15.2766 38.9062 14.3998L38.9064 14.2445C38.9066 13.5924 38.9068 13.0824 38.8144 12.599C38.5762 11.3547 37.8883 10.2417 36.882 9.47221C36.4909 9.17328 36.0347 8.94539 35.4514 8.65406L30.3748 6.11585C29.5905 5.72369 28.9522 5.40457 28.4293 5.17661C27.9021 4.94673 27.3831 4.75929 26.8476 4.69683Z" fill="black"/>
</svg>
