<svg width="45" height="45" viewBox="0 0 45 45" fill="none" xmlns="http://www.w3.org/2000/svg">
<path fill-rule="evenodd" clip-rule="evenodd" d="M39.375 4.21875C42.4816 4.21875 45 6.73715 45 9.84375V29.5312C45 32.6379 42.4816 35.1562 39.375 35.1562H28.125V39.375H32.3438C33.1204 39.375 33.75 40.0046 33.75 40.7812C33.75 41.5579 33.1204 42.1875 32.3438 42.1875H12.6562C11.8796 42.1875 11.25 41.5579 11.25 40.7812C11.25 40.0046 11.8796 39.375 12.6562 39.375H16.875V35.1562H5.625C2.5184 35.1562 0 32.6379 0 29.5312V9.84375C0 6.73715 2.5184 4.21875 5.625 4.21875H39.375ZM25.3125 39.375V35.1562H19.6875V39.375H25.3125Z" fill="black"/>
</svg>
